<svg xmlns="http://www.w3.org/2000/svg" xmlns:xlink="http://www.w3.org/1999/xlink" width="500" zoomAndPan="magnify" viewBox="0 0 375 374.999991" height="500" preserveAspectRatio="xMidYMid meet" version="1.2"><defs/><g id="e1cd335ea6"><g style="fill:#ffffff;fill-opacity:1;"><g transform="translate(-5.953117, 313.952545)"><path style="stroke:none" d="M 74.25 2.5 C 54.695312 2.5 39.046875 -3.632812 27.296875 -15.90625 C 15.546875 -28.175781 9.671875 -45.023438 9.671875 -66.453125 L 9.671875 -190.015625 C 9.671875 -216.628906 14.972656 -236.695312 25.578125 -250.21875 C 36.191406 -263.738281 52.832031 -270.5 75.5 -270.5 C 95.257812 -270.5 111.171875 -265.09375 123.234375 -254.28125 C 135.304688 -243.46875 141.34375 -227.867188 141.34375 -207.484375 L 141.34375 -161.296875 L 87.984375 -161.296875 L 87.984375 -200.921875 C 87.984375 -208.617188 87.046875 -213.921875 85.171875 -216.828125 C 83.304688 -219.742188 80.082031 -221.203125 75.5 -221.203125 C 70.71875 -221.203125 67.441406 -219.535156 65.671875 -216.203125 C 63.910156 -212.878906 63.03125 -207.992188 63.03125 -201.546875 L 63.03125 -67.078125 C 63.03125 -60.003906 64.066406 -54.851562 66.140625 -51.625 C 68.222656 -48.40625 71.34375 -46.796875 75.5 -46.796875 C 83.820312 -46.796875 87.984375 -53.554688 87.984375 -67.078125 L 87.984375 -115.4375 L 141.953125 -115.4375 L 141.953125 -64.890625 C 141.953125 -19.960938 119.382812 2.5 74.25 2.5 Z M 74.25 2.5 "/></g></g><g style="fill:#ffffff;fill-opacity:1;"><g transform="translate(148.174633, 313.952545)"><path style="stroke:none" d="M 11.859375 0 L 11.859375 -268.015625 L 93.59375 -268.015625 L 116.0625 -104.515625 L 138.53125 -268.015625 L 220.890625 -268.015625 L 220.890625 0 L 171.90625 0 L 171.90625 -193.125 L 141.03125 0 L 92.96875 0 L 60.21875 -193.125 L 60.21875 0 Z M 11.859375 0 "/></g></g></g></svg>